<?xml version="1.0" encoding="UTF-8" standalone="no"?>
<svg width="40px" height="50px" viewBox="0 0 40 50" version="1.1" xmlns="http://www.w3.org/2000/svg" xmlns:xlink="http://www.w3.org/1999/xlink">
    <path id="shape" fill="#00BFA5" d="M19.9988232,0 C8.95322153,0 0,8.71199507 0,19.4556787 C0,30.2017414 19.9988232,50 19.9988232,50 C19.9988232,50 40,30.2017414 40,19.4556787 C40,8.71199507 31.0444248,2.77568962e-15 19.9988232,0 Z"></path>
    <path fill="#FFFFFF" d="M26.3167746,13.3359229 L14.0881473,13.3359229 L14.0881473,16.0522885 L26.3167746,16.0522885 L26.3167746,13.3359229 Z M20.9121581,7.85225973 L20.9121581,7 L19.4757038,7 L19.4757038,7.85225973 C16.9239548,8.21040645 15.0249279,10.3809461 15.0196248,12.9454453 L25.3682371,12.9454453 C25.3629339,10.3809461 23.463907,8.21040645 20.9121581,7.85225973 Z M14.6511282,19.0267089 L13.3750382,19.0267089 L13.3750382,23.135212 L14.6477162,23.135212 L14.6511282,19.0267089 Z M13.0508977,20.1438143 L12,20.1438143 L12,22.0181066 L13.0508977,22.0181066 L13.0508977,20.1438143 Z M26.9821156,19.0267089 L25.7264977,19.0267089 L25.7264977,23.135212 L26.9821156,23.135212 L26.9821156,19.0267089 Z M28.3469178,20.1438143 L27.3233162,20.1438143 L27.3233162,22.0181066 L28.3742138,22.0181066 L28.3469178,20.1438143 Z M14.0881473,30.0279898 L26.3167746,30.0279898 L26.3167746,28.1299293 L14.0881473,28.1299293 L14.0881473,30.0279898 Z M20.202461,19.6005412 C19.4710464,19.6005411 18.8116517,20.0389977 18.5317515,20.7114593 C18.2518513,21.3839208 18.4065671,22.1579575 18.9237553,22.6726373 C19.4409434,23.1873171 20.2187525,23.3412826 20.8944914,23.0627399 C21.5702303,22.7841972 22.0108238,22.1280005 22.0108238,21.4001334 C22.0108238,20.4062461 21.2011922,19.6005412 20.202461,19.6005412 L20.202461,19.6005412 Z M15.0400968,16.4156024 L15.0400968,27.7768018 L25.3682371,27.7768018 L25.3682371,16.4156024 L15.0400968,16.4156024 Z M20.209285,23.885608 C18.833674,23.885608 17.718521,22.7758635 17.718521,21.4069243 C17.718521,20.0379851 18.833674,18.9282407 20.209285,18.9282407 C21.5848959,18.9282407 22.7000489,20.0379851 22.7000489,21.4069243 C22.6944063,22.774538 21.5767463,23.8791801 20.202461,23.8754216 L20.209285,23.885608 Z"></path>
</svg>