<?xml version="1.0" encoding="UTF-8" standalone="no"?>
<svg width="20px" height="20px" viewBox="0 0 20 20" version="1.1" xmlns="http://www.w3.org/2000/svg" xmlns:xlink="http://www.w3.org/1999/xlink">
    <!-- Generator: Sketch 46 (44423) - http://www.bohemiancoding.com/sketch -->
    <title>guolu</title>
    <desc>Created with Sketch.</desc>
    <defs></defs>
    <g id="Page-1" stroke="none" stroke-width="1" fill="none" fill-rule="evenodd">
        <g id="aa" transform="translate(-522.000000, -600.000000)" fill="#FFFFFF">
            <g id="bb" transform="translate(240.000000, 100.000000)">
                <g id="right" transform="translate(0.000000, 41.000000)">
                    <g id="Group-8" transform="translate(80.000000, 63.000000)">
                        <g id="Group-7" transform="translate(197.000000, 391.000000)">
                            <path d="M5,23.3332847 C5,24.2540793 5.74579107,25 6.66658562,25 L23.3332847,25 C24.2541117,25 25,24.2540793 25,23.3332847 L25,18.7498987 C25,17.8292338 24.2541117,17.0833131 23.3332847,17.0833131 L18.3332685,17.0833131 L18.3332685,12.708388 C18.3332685,12.1334183 17.8667114,11.6666342 17.2916444,11.6666342 C16.7166746,11.6666342 16.2500203,12.1334183 16.2500203,12.708388 L16.2500203,17.0833131 L6.66658562,17.0833131 C5.74592075,17.0833131 5,17.8292338 5,18.7500284 L5,23.3332847 Z M7.08324823,21.0416079 C7.08324823,20.4666381 7.54990258,19.9999838 8.12513171,19.9999838 C8.69993937,19.9999838 9.16662614,20.4666381 9.16662614,21.0416079 C9.16662614,21.6165453 8.69993937,22.0833293 8.12513171,22.0833293 C7.54990258,22.0833293 7.08324823,21.6165453 7.08324823,21.0416079 Z M10.8333414,21.0416079 C10.8333414,20.4666381 11.2999958,19.9999838 11.8749656,19.9999838 C12.4499029,19.9999838 12.9166869,20.4666381 12.9166869,21.0416079 C12.9166869,21.6165453 12.4499029,22.0833293 11.8749656,22.0833293 C11.2999958,22.0833293 10.8333414,21.6165453 10.8333414,21.0416079 Z M17.2916444,8.33330091 C14.8749558,8.33330091 12.9166869,10.2916995 12.9166869,12.708388 C12.9166869,13.2833254 13.3833737,13.7499797 13.958311,13.7499797 C14.5334105,13.7499797 14.9999352,13.2833254 14.9999352,12.708388 C14.9999352,11.4415742 16.0249602,10.4166788 17.2917741,10.4166788 C18.5584258,10.4166788 19.5833212,11.4415742 19.5833212,12.708388 C19.5833212,13.2833254 20.0500079,13.7499797 20.625075,13.7499797 C21.2000123,13.7499797 21.6666991,13.2833254 21.6666991,12.708388 C21.6666991,10.2916995 19.7083329,8.33330091 17.2916444,8.33330091 Z M17.2916444,5 C13.0333343,5 9.58325634,8.45007797 9.58325634,12.708388 C9.58325634,13.2833254 10.0499431,13.7499797 10.6250101,13.7499797 C11.2000772,13.7499797 11.6666342,13.2833254 11.6666342,12.708388 C11.6666342,9.59998509 14.1833711,7.08337791 17.2916444,7.08337791 C20.3999177,7.08337791 22.9166545,9.59998509 22.9166545,12.708388 C22.9166545,13.2833254 23.3834385,13.7499797 23.9583759,13.7499797 C24.5333457,13.7499797 25,13.2833254 25,12.708388 C25,8.45007797 21.5503111,5 17.2916444,5 Z" id="guolu"></path>
                        </g>
                    </g>
                </g>
            </g>
        </g>
    </g>
</svg>