<?xml version="1.0" encoding="UTF-8" standalone="no"?>
<svg width="40px" height="40px" viewBox="0 0 40 40" version="1.1" xmlns="http://www.w3.org/2000/svg" xmlns:xlink="http://www.w3.org/1999/xlink">
    <!-- Generator: Sketch 47.1 (45422) - http://www.bohemiancoding.com/sketch -->
    <title>xinqingkaixin</title>
    <desc>Created with Sketch.</desc>
    <defs></defs>
    <g id="Page-1" stroke="none" stroke-width="1" fill="none" fill-rule="evenodd">
        <g id="项目首页－一楼大厅" transform="translate(-1819.000000, -960.000000)" fill-rule="nonzero" fill="#FFD043">
            <g id="Group-3-Copy-5" transform="translate(1560.000000, 940.000000)">
                <g id="xinqingkaixin" transform="translate(259.000000, 20.000000)">
                    <path d="M9.9967139,14.9980126 C9.9967139,16.3792646 11.1164556,17.4990063 12.4977076,17.4990063 C13.8789596,17.4990063 14.9987013,16.3792646 14.9987013,14.9980126 C14.9987013,13.6169901 13.8789596,12.4972484 12.4977076,12.4972484 C11.1164556,12.4972484 9.9967139,13.6169901 9.9967139,14.9980126 Z M25.0012987,14.9980126 C25.0012987,16.3792646 26.1210404,17.4990063 27.5022924,17.4990063 C28.8835444,17.4990063 30.0032861,16.3792646 30.0032861,14.9980126 C30.0032861,13.6169901 28.8835444,12.4972484 27.5022924,12.4972484 C26.1210404,12.4972484 25.0012987,13.6169901 25.0012987,14.9980126 Z M19.9995408,31.2522906 C16.4991139,31.2522906 12.9977686,29.4997812 10.9972951,26.7510529 C10.2451372,25.7504717 9.74874978,24.5019265 9.24478565,23.5018045 C8.99659193,22.7496466 9.49274978,22.0013919 9.9969435,21.7492951 C10.7491013,21.5011013 11.2454888,21.9974888 11.4975857,22.5012233 C11.7457794,23.5015749 12.2497435,24.2539623 12.7461309,25.0024466 C14.7468341,27.5032108 17.2475982,28.7556592 19.9956377,28.7556592 C22.7445955,28.7556592 25.4979157,27.5071139 26.9983283,25.2545435 C27.4983892,24.5021561 27.9986798,23.5057076 28.2468735,22.7533202 C28.4989704,22.0013919 29.2472251,21.7531982 29.7472861,22.0013919 C30.4992143,22.2495857 30.7476377,23.0015139 30.4992143,23.5018045 C30.2475767,24.7503498 29.499322,25.7504717 28.7467049,26.7510529 C27.0017722,29.5034547 23.5008861,31.2522906 19.9995408,31.2522906 L19.9995408,31.2522906 Z M19.9995408,39.9748879 C9.08039462,39.9748879 0.0251121076,30.9202942 0.0251121076,19.9997704 C0.0251121076,9.07993543 9.08039462,0.0251121076 19.9995408,0.0251121076 C30.9193758,0.0251121076 39.9748879,9.07993543 39.9748879,19.9997704 C39.9748879,30.9202942 30.9193758,39.9748879 19.9995408,39.9748879 L19.9995408,39.9748879 Z M19.9995408,2.68980807 C10.4129722,2.68980807 2.69003767,10.412513 2.69003767,19.9997704 C2.69003767,29.5877166 10.4129722,37.3101919 19.9995408,37.3101919 C29.5870278,37.3101919 37.3099623,29.5877166 37.3099623,19.9997704 C37.3099623,10.412513 29.5870278,2.68980807 19.9995408,2.68980807 Z" id="Shape"></path>
                </g>
            </g>
        </g>
    </g>
</svg>