<?xml version="1.0" encoding="UTF-8" standalone="no"?>
<svg width="20px" height="18px" viewBox="0 0 20 18" version="1.1" xmlns="http://www.w3.org/2000/svg" xmlns:xlink="http://www.w3.org/1999/xlink">
    <!-- Generator: Sketch 46 (44423) - http://www.bohemiancoding.com/sketch -->
    <title>jishuqi</title>
    <desc>Created with Sketch.</desc>
    <defs></defs>
    <g id="Page-1" stroke="none" stroke-width="1" fill="none" fill-rule="evenodd">
        <g transform="translate(-1187.000000, -209.000000)" fill="#FFFFFF">
            <g id="right" transform="translate(241.000000, 140.000000)">
                <g id="Group-8" transform="translate(83.000000, 48.000000)">
                    <g id="Group-7" transform="translate(858.000000, 15.000000)">
                        <g id="jishuqi" transform="translate(5.000000, 6.000000)">
                            <path d="M16.8226363,11.4143122 C16.8226363,11.9959934 16.5409127,12.4675325 16.1933802,12.4675325 C15.845823,12.4675325 15.5640994,11.9959934 15.5640994,11.4143122 L15.5640994,1.10423923 C15.5640994,0.522582969 15.845823,0.0510189795 16.1933802,0.0510189795 C16.5409127,0.0510189795 16.8226363,0.522582969 16.8226363,1.10423923 L16.8226363,11.4143122 Z M14.1982982,11.4143122 C14.1982982,11.9959934 13.9165498,12.4675325 13.5690173,12.4675325 C13.2214848,12.4675325 12.9397365,11.9959934 12.9397365,11.4143122 L12.9397365,1.10423923 C12.9397365,0.522582969 13.2214848,0.0510189795 13.5690173,0.0510189795 C13.9165498,0.0510189795 14.1982982,0.522582969 14.1982982,1.10423923 L14.1982982,11.4143122 Z M11.5995015,11.3632932 C11.5995015,11.9449744 11.3177779,12.4165135 10.9702207,12.4165135 C10.6226882,12.4165135 10.3409646,11.9449744 10.3409646,11.3632932 L10.3409646,1.05322025 C10.3409646,0.471563989 10.6226882,0 10.9702207,0 C11.3177779,0 11.5995015,0.471563989 11.5995015,1.05322025 L11.5995015,11.3632932 Z M8.97518813,11.3632932 C8.97518813,11.9449744 8.6934398,12.4165135 8.3459073,12.4165135 C7.9983748,12.4165135 7.71662648,11.9449744 7.71662648,11.3632932 L7.71662648,1.05322025 C7.71662648,0.471563989 7.9983748,0 8.3459073,0 C8.6934398,0 8.97518813,0.471563989 8.97518813,1.05322025 L8.97518813,11.3632932 Z M6.40695711,11.3632932 C6.40695711,11.9449744 6.12520879,12.4165135 5.77767629,12.4165135 C5.43011904,12.4165135 5.14839546,11.9449744 5.14839546,11.3632932 L5.14839546,1.05322025 C5.14839546,0.471563989 5.43011904,0 5.77767629,0 C6.12520879,0 6.40695711,0.471563989 6.40695711,1.05322025 L6.40695711,11.3632932 Z M3.66355716,11.4823625 C3.6282233,12.0079848 3.36175804,12.4165135 3.03827772,12.4165135 C2.71477435,12.4165135 2.44830751,12.0079848 2.41297353,11.4823625 L2.29399586,11.4823625 L2.29399586,8.62173376 L2.40899689,8.62173376 L2.40899689,1.05322025 C2.40899689,0.471563989 2.69072047,0 3.03827772,0 C3.38581022,0 3.66753379,0.471563989 3.66753379,1.05322025 L3.66753379,8.62173376 L3.82472777,8.62173376 L3.82472777,11.4823625 L3.66355716,11.4823625 Z" id="Combined-Shape"></path>
                            <path d="M19.1166322,14.526898 C19.1166322,15.3261329 18.503359,15.974026 17.7468307,15.974026 L1.36980145,15.974026 C0.613273185,15.974026 0,15.3261329 0,14.526898 L0,12.3562189 C0,11.5569839 0.613273185,10.9090909 1.36980145,10.9090909 L17.7468307,10.9090909 C18.503359,10.9090909 19.1166322,11.5569839 19.1166322,12.3562189 L19.1166322,14.526898 Z" id="Fill-1"></path>
                            <path d="M15.221369,8.8696234 C15.310263,8.99987803 15.4249252,9.11120278 15.5603496,9.19436938 C15.8995869,9.40274268 16.3175828,9.40274268 16.6568201,9.19436938 C16.9960821,8.98602235 17.2050183,8.60095732 17.2049689,8.18426326 C17.2050183,7.7675692 16.9960821,7.38250417 16.6568201,7.17415714 C16.3175828,6.96578384 15.8995869,6.96578384 15.5603496,7.17415714 C15.2210876,7.38250417 15.0121267,7.7675692 15.0121761,8.18426326 C15.0121613,8.3093547 15.0309824,8.43159574 15.0665102,8.54706115 L14.7710178,8.75346755 L14.956813,9.05441618 L15.221369,8.8696234 Z M7.26021858,8.86924802 C7.3491448,8.99966416 7.46389132,9.1111229 7.59943591,9.19436938 C7.93867321,9.40274268 8.3566691,9.40274268 8.6959064,9.19436938 C9.03516841,8.98602235 9.24412931,8.60095732 9.24407991,8.18426326 C9.24412931,7.7675692 9.03516841,7.38250417 8.6959064,7.17415714 C8.3566691,6.96578384 7.93867321,6.96578384 7.59943591,7.17415714 C7.2601986,7.38250417 7.0512377,7.7675692 7.0512871,8.18426326 C7.05127229,8.30918749 7.07004314,8.43126893 7.10547811,8.54659808 L6.80980032,8.75311553 L6.99562017,9.05406416 L7.26021858,8.86924802 Z M12.5094221,8.86948718 C12.5983255,8.99980042 12.7130146,9.11117379 12.8484763,9.19436938 C13.1877383,9.40274268 13.6057342,9.40274268 13.9449715,9.19436938 C14.2842088,8.98602235 14.4931697,8.60095732 14.4931203,8.18426326 C14.4931697,7.7675692 14.2842088,7.38250417 13.9449715,7.17415714 C13.6057342,6.96578384 13.1877383,6.96578384 12.8484763,7.17415714 C12.509239,7.38250417 12.3002781,7.7675692 12.3003275,8.18426326 C12.3003127,8.30929024 12.3191144,8.43146976 12.354606,8.54688265 L12.0590136,8.75335196 L12.2448335,9.05430059 L12.5094221,8.86948718 Z M9.97217881,8.86936761 C10.0610972,8.9997323 10.1758209,9.11114834 10.3113339,9.19436938 C10.6505712,9.40274268 11.0685671,9.40274268 11.4078044,9.19436938 C11.7470417,8.98602235 11.9560026,8.60095732 11.9559532,8.18426326 C11.9560026,7.7675692 11.7470417,7.38250417 11.4078044,7.17415714 C11.0685671,6.96578384 10.6505712,6.96578384 10.3113339,7.17415714 C9.97207191,7.38250417 9.76311102,7.7675692 9.76316041,8.18426326 C9.7631456,8.3092462 9.7819341,8.43138368 9.81740207,8.54676067 L9.52177242,8.75324688 L9.70759227,9.05416924 L9.97217881,8.86936761 Z M4.69173133,8.86422252 C4.78067282,8.99469369 4.8954548,9.10620264 5.03105187,9.18948579 C5.37028918,9.39783282 5.78828506,9.39783282 6.12752237,9.18948579 C6.46675968,8.98111249 6.67572057,8.59604746 6.67567118,8.17937967 C6.67572057,7.76268561 6.46675968,7.37762058 6.12752237,7.16924728 C5.78828506,6.96090026 5.37028918,6.96090026 5.03105187,7.16924728 C4.69178987,7.37762058 4.48282897,7.76268561 4.48287836,8.17937967 C4.48286356,8.30425134 4.50162098,8.42628462 4.53703202,8.54157418 L4.24131749,8.74812424 L4.42711265,9.0490466 L4.69173133,8.86422252 Z M1.97980941,8.86411556 C2.06875752,8.99463274 2.18355925,9.10617988 2.3191835,9.18948579 C2.6584455,9.39783282 3.07641669,9.39783282 3.41567869,9.18948579 C3.754916,8.98111249 3.96387689,8.59604746 3.9638275,8.17937967 C3.96387689,7.76268561 3.754916,7.37762058 3.41567869,7.16924728 C3.07641669,6.96090026 2.6584455,6.96090026 2.3191835,7.16924728 C1.97994619,7.37762058 1.77098529,7.76268561 1.77103469,8.17937967 C1.77101989,8.3041976 1.78976116,8.42617957 1.82514197,8.54142532 L1.52933057,8.74804543 L1.71515043,9.04896779 L1.97980941,8.86411556 Z" id="Combined-Shape"></path>
                            <path d="M15.6141485,16.7378297 L15.959209,16.7378297 L15.959209,15.5844156 L15.6141485,15.5844156 L15.6141485,16.7378297 Z M2.75888779,16.7378297 L2.75888779,15.5844156 L3.10394826,15.5844156 L3.10394826,16.7378297 L16.8226363,16.7378297 L16.8226363,17.1428571 L1.91166322,17.1428571 L1.91166322,16.7378297 L2.75888779,16.7378297 Z" id="Combined-Shape"></path>
                        </g>
                    </g>
                </g>
            </g>
        </g>
    </g>
</svg>