<?xml version="1.0" encoding="UTF-8" standalone="no"?>
<svg width="283px" height="192px" viewBox="0 0 283 192" version="1.1" xmlns="http://www.w3.org/2000/svg" xmlns:xlink="http://www.w3.org/1999/xlink">
    <!-- Generator: Sketch 48.2 (47327) - http://www.bohemiancoding.com/sketch -->
    <title>huanjing03</title>
    <desc>Created with Sketch.</desc>
    <defs>
        <path d="M199.133136,154 L41.3946824,154 C17.7944909,154 0,135.019396 0,109.841015 C0,88.5236998 12.6228614,71.4747402 31.1876718,66.915581 C35.8664747,44.0917049 55.8961688,27.3660764 79.4619509,27.3660764 C86.4306229,27.3660764 93.2938476,28.8453913 99.5804426,31.6800268 C111.432707,11.9979927 132.410038,0 155.62063,0 C191.792901,0 221.2357,29.6157695 221.2357,66.0392794 C221.2357,67.8975283 221.158279,69.756055 221.008156,71.5753815 C234.484307,79.4156676 243,93.9919663 243,109.841015 C243,134.194527 223.325774,154 199.133136,154 Z" id="path-1"></path>
        <filter x="-13.0%" y="-19.2%" width="125.9%" height="140.9%" filterUnits="objectBoundingBox" id="filter-2">
            <feMorphology radius="0.5" operator="dilate" in="SourceAlpha" result="shadowSpreadOuter1"></feMorphology>
            <feOffset dx="0" dy="2" in="shadowSpreadOuter1" result="shadowOffsetOuter1"></feOffset>
            <feGaussianBlur stdDeviation="10" in="shadowOffsetOuter1" result="shadowBlurOuter1"></feGaussianBlur>
            <feComposite in="shadowBlurOuter1" in2="SourceAlpha" operator="out" result="shadowBlurOuter1"></feComposite>
            <feColorMatrix values="0 0 0 0 0.00711334486   0 0 0 0 0.133316543   0 0 0 0 0.157312925  0 0 0 0.516049592 0" type="matrix" in="shadowBlurOuter1"></feColorMatrix>
        </filter>
    </defs>
    <g id="首页" stroke="none" stroke-width="1" fill="none" fill-rule="evenodd" transform="translate(-259.000000, 0.000000)">
        <g id="云" transform="translate(279.000000, 16.000000)" fill-rule="nonzero">
            <g id="huanjing03">
                <use fill="black" fill-opacity="1" filter="url(#filter-2)" xlink:href="#path-1"></use>
                <use stroke="#56E4FF" stroke-width="1" fill-opacity="0.4" fill="#09A2DD" fill-rule="evenodd" xlink:href="#path-1"></use>
            </g>
        </g>
    </g>
</svg>