<?xml version="1.0" encoding="UTF-8" standalone="no"?>
<svg width="39px" height="39px" viewBox="0 0 39 39" version="1.1" xmlns="http://www.w3.org/2000/svg" xmlns:xlink="http://www.w3.org/1999/xlink">
    <!-- Generator: Sketch 48.2 (47327) - http://www.bohemiancoding.com/sketch -->
    <title>环境</title>
    <desc>Created with Sketch.</desc>
    <defs></defs>
    <g id="首页" stroke="none" stroke-width="1" fill="none" fill-rule="evenodd" transform="translate(-622.000000, -165.000000)">
        <g id="环境" transform="translate(624.000000, 167.000000)">
            <circle id="Oval-5" stroke="#56E4FF" stroke-width="3" cx="17.5" cy="17.5" r="17.5"></circle>
            <g id="环境监测" transform="translate(8.000000, 7.000000)" fill="#56E4FF" fill-rule="nonzero">
                <path d="M9.13175233,16.2195229 C8.98542283,16.0636395 8.84739571,15.8988396 8.71255575,15.7308924 C8.43203684,15.4962746 8.16296545,15.2502003 7.91377103,14.9771653 C8.00260878,14.987645 8.09522051,14.9854157 8.18533804,14.9927078 C7.98342458,14.6704404 7.80446929,14.3316937 7.65237505,13.9789659 C7.45748562,13.9478599 7.26131683,13.9249837 7.07150124,13.8805439 C6.36732106,12.7978815 5.88482393,11.531719 5.69695896,10.1579318 C6.15196724,10.330962 6.62930509,10.4646157 7.118824,10.5655989 C7.15075703,10.2718966 7.20061682,9.97442152 7.27410663,9.67342622 C6.69319185,9.55023207 6.13789725,9.36991037 5.61579579,9.13781312 C5.6132378,9.05018331 5.60749281,8.96317876 5.60749281,8.87461199 C5.60749281,7.83799361 5.77749434,6.84264891 6.08743078,5.91810388 C6.84210142,6.43275642 7.74379102,6.74264901 8.71511861,6.80042239 C9.01291435,6.42769494 9.32987401,6.06796528 9.67941827,5.73713656 C9.465343,5.77174256 9.24615353,5.79557713 9.02249734,5.79557713 C8.06715163,5.79557713 7.1891316,5.47522563 6.48424658,4.9380102 C7.09644488,3.6312113 8.00390231,2.51489189 9.11324574,1.69957796 C10.0474995,2.38567751 10.8258192,3.29528853 11.420128,4.34427353 C11.7076913,4.14395022 11.9978136,3.95471045 12.286678,3.77120017 C11.7926718,2.91394475 11.1868683,2.13959095 10.4782009,1.48968527 C11.4328971,1.66084032 12.327565,2.00529676 13.1282634,2.48821833 C13.0535155,2.83938256 12.9206055,3.16575449 12.7621144,3.47720869 C13.2650109,3.17271352 13.7602956,2.88507231 14.215892,2.6244121 C14.4619208,2.48505053 14.7360858,2.32660517 15,2.17009625 C13.4100613,0.823877327 11.3613479,0 9.11577045,0 C7.18337646,0 5.3940818,0.605158599 3.91790908,1.62556639 L3.79523051,1.62556639 C3.79523051,1.65669308 3.79713853,1.6862154 3.7990675,1.71732132 C2.98432128,2.30087517 2.2666528,3.01554991 1.68640597,3.83086384 C1.59186515,3.96041253 1.50239857,4.09564898 1.41674859,4.23217665 C1.18541904,4.5944452 0.979646156,4.97067456 0.803271742,5.36277856 C0.451170383,6.14032073 0.209608329,6.97438617 0.0913956727,7.85003069 C0.037719906,8.24594812 0,8.64821988 0,9.05809608 C0,13.5852313 3.36324372,17.3358179 7.73547694,18 C8.02945322,17.6679293 8.47676152,17.1240542 9.13175233,16.2195229 Z M7.74569285,1.49062272 C6.92709469,2.2431018 6.23377399,3.15239927 5.7072058,4.17534594 C5.34680206,3.71180093 5.08028778,3.17333336 4.94163266,2.58628086 C5.7813351,2.05069219 6.72836408,1.67350591 7.74569285,1.49062272 Z M4.05594747,3.24382559 C4.30197625,3.99057335 4.71414695,4.65985966 5.24646043,5.21136981 C4.85024497,6.25971755 4.61958543,7.39668398 4.58826094,8.58822931 C3.51403052,7.90623432 2.63473194,6.98962152 2.05386223,5.91649573 C2.51842892,4.88497955 3.20347796,3.97629492 4.05594747,3.24382559 Z M1.37074536,9.05652836 C1.37074536,8.34913638 1.47426001,7.6665367 1.65575149,7.01122953 C2.39446483,8.09451697 3.41053144,9.00000305 4.61192847,9.65372623 C4.7128643,11.006903 5.07008191,12.2765552 5.6318123,13.4138209 C3.63163259,12.5699216 2.07238073,11.011653 1.37202596,9.10158492 C1.37330451,9.08763836 1.37074536,9.07365108 1.37074536,9.05652836 Z M1.90111847,11.8409542 C3.02583729,13.1636298 4.58253,14.1691138 6.37436538,14.6752212 C6.85937658,15.3740295 7.42746079,15.9997923 8.06523829,16.5335099 C8.13168317,16.5598655 8.20070687,16.5804915 8.27035961,16.6024094 C8.21668384,16.6319317 8.16489496,16.6557455 8.11124009,16.6852888 C5.2688494,16.3169656 2.91080462,14.413596 1.90111847,11.8409542 Z" id="Shape"></path>
                <path d="M16.874198,1.14629443 C17.0115001,2.61773734 10.2727574,4.56692342 8.58625785,8.78310604 C7.28433894,12.0317285 8.98114123,14.7869358 10.7247412,16.1144871 C7.37846797,21.3936795 7.24298777,20.2803238 7,20.5945402 L8.88758685,21 C8.88758685,21 12.084413,15.1465789 12.4088058,14.5341452 C12.3966862,14.5217214 11.5303351,13.690525 10.8037171,12.7206499 C10.6227007,12.4757561 10.4489206,12.2259053 10.301332,11.9767632 C10.1555381,11.7292525 10.0297385,11.4875774 9.9532131,11.266221 C9.91127288,11.1563589 9.87423643,11.0569468 9.86024311,10.9614824 C9.84381788,10.8676277 9.81646907,10.7891578 9.8207349,10.718176 C9.8207349,10.583788 9.81951895,10.5059829 9.81951895,10.5059829 C9.81951895,10.5059829 9.8292465,10.5821568 9.84626981,10.7155576 C9.84626981,10.7832558 9.88392434,10.8574985 9.90943923,10.9470838 C9.93254216,11.0357029 9.97992419,11.1279056 10.0309341,11.2273183 C10.1287679,11.4300266 10.2745822,11.6471752 10.4428796,11.867565 C10.6093247,12.0889193 10.8061477,12.3102966 11.0066194,12.5248277 C11.4131048,12.9515309 11.8510828,13.3406602 12.1864659,13.6228259 C12.4161004,13.8154493 12.5874094,13.9498375 12.6785853,14.0198101 C13.0036014,13.3932959 13.3365106,12.7334372 13.6706568,12.0382379 L13.6627831,12.050018 C13.6627831,12.050018 12.9926577,11.4074962 12.432506,10.6616364 C12.2945858,10.4716524 12.1597165,10.2813454 12.0479487,10.0907187 C11.9349255,9.89974765 11.8389664,9.71566359 11.7806193,9.5466011 C11.7490445,9.46225187 11.7216959,9.38605653 11.7101344,9.31282282 C11.6967988,9.24184157 11.6761476,9.18169654 11.6797956,9.12775239 C11.6791976,9.02374811 11.6785796,8.96392496 11.6785796,8.96392496 C11.6785796,8.96392496 11.6858554,9.02310458 11.6980347,9.12676539 C11.6980347,9.17841347 11.7277755,9.23499675 11.7466327,9.30267333 C11.7636559,9.37101524 11.8000945,9.44032277 11.8389848,9.51879174 C11.9137155,9.67345689 12.0261008,9.83891506 12.1536748,10.0076358 C12.2824653,10.1766989 12.4325244,10.3464066 12.5856336,10.5111977 C12.897314,10.8372007 13.2326562,11.1344282 13.4890206,11.3509136 C13.6555054,11.4908589 13.7818448,11.5905925 13.8541431,11.6455243 C14.2089396,10.8947724 14.5631185,10.1090217 14.9088063,9.2931682 L14.8729458,9.34385067 C14.8729458,9.34385067 14.3359164,8.83048163 13.8881499,8.23241989 C13.7769806,8.08299043 13.670655,7.92798119 13.581353,7.77659953 C13.491433,7.62551773 13.4136722,7.47643216 13.3675067,7.34236648 C13.3425697,7.27501157 13.3200849,7.21385794 13.311613,7.15467831 C13.3006695,7.09745129 13.2836463,7.04938677 13.2872942,7.00589259 C13.2872942,6.9231743 13.2860583,6.87541005 13.2860583,6.87541005 C13.2860583,6.87541005 13.2915201,6.92413991 13.3018656,7.00522746 C13.3018656,7.04546017 13.3249286,7.0925163 13.3407361,7.14517277 C13.3559254,7.19978184 13.3844902,7.25602187 13.4154469,7.31717549 C13.4743704,7.44272283 13.5655066,7.57451423 13.6675472,7.70922365 C13.7696268,7.84331113 13.8887101,7.97965107 14.0126565,8.1124083 C14.2617258,8.37337254 14.5296532,8.61073647 14.7343695,8.78308266 C14.8692597,8.89620623 14.9701031,8.97568464 15.0272132,9.01947993 C15.0284292,9.01362204 15.0308611,9.00935201 15.0332929,9.00445973 C15.0332929,9.00445973 15.2714595,8.43680265 15.3795788,8.16474386 C16.48589,5.40494441 16.0715524,6.57101551 15.1942966,8.95703895 C15.2763232,8.9521252 15.3783629,8.94427178 15.5065361,8.93186934 C15.7926827,8.90536948 16.1754654,8.85730475 16.5502751,8.77555186 C16.7367933,8.73237955 16.9239102,8.68497995 17.0940426,8.62513519 C17.2641155,8.56494718 17.4208722,8.50087512 17.5472107,8.42500166 C17.6091841,8.38773016 17.6674896,8.35404201 17.7112637,8.31187809 C17.7555958,8.27132351 17.8023999,8.24387943 17.8260807,8.20658654 C17.8813366,8.13727902 17.9117352,8.09771144 17.9117352,8.09771144 C17.9117352,8.09771144 17.8856024,8.14054049 17.8376224,8.21772283 C17.8181672,8.26023001 17.7750311,8.29389677 17.7331109,8.34035215 C17.6930246,8.38938229 17.6371508,8.4315676 17.5763936,8.47735785 C17.4572908,8.57183499 17.304241,8.65981034 17.1365397,8.74252842 C16.9688589,8.82687765 16.7841743,8.89948964 16.5970792,8.9687978 C15.8485759,9.23334559 15.0661043,9.36410869 15.0661043,9.36410869 L15.0618385,9.31670929 C14.8242914,9.96313541 14.5588164,10.6808867 14.2823784,11.4251151 C14.3722587,11.4198795 14.4725244,11.4117042 14.5940198,11.4005679 C14.9628104,11.3642834 15.4561258,11.303473 15.9397132,11.1988466 C16.1815263,11.1429284 16.4233005,11.080466 16.6432265,11.0036269 C16.8625544,10.9267878 17.0648611,10.8440265 17.2252459,10.7453005 C17.3066744,10.6985233 17.3820032,10.6547072 17.4384942,10.6007633 C17.4962219,10.54845 17.5563414,10.5128093 17.5861221,10.4647446 C17.6565872,10.3744731 17.6978894,10.3244774 17.6978894,10.3244774 C17.6978894,10.3244774 17.6638828,10.3794083 17.6024876,10.4791425 C17.5757767,10.5340735 17.5217169,10.5762374 17.4676173,10.6377129 C17.4147734,10.7004972 17.3442887,10.7544414 17.2659301,10.8143075 C17.1134386,10.9369369 16.9141627,11.0484297 16.6984813,11.156318 C16.4815845,11.2639056 16.2446743,11.3573956 16.0034786,11.4470012 C15.177254,11.7393368 14.3236606,11.9031655 14.0933871,11.9446857 C13.8388363,12.6329968 13.4712807,13.3324235 13.2216134,14.0112505 C13.3224572,14.004706 13.544816,13.9952433 13.679069,13.9828194 C14.1025171,13.9422435 14.6675134,13.8713052 15.2234185,13.7503077 C15.4998371,13.6869009 15.7768732,13.6159197 16.0284144,13.5282886 C16.2799167,13.4403131 16.5126193,13.3442054 16.6966658,13.2310611 C16.7902339,13.1767739 16.8765062,13.1260698 16.940912,13.0645943 C17.0065331,13.0080326 17.0751843,12.9655468 17.1104068,12.9089422 C17.1924133,12.8069335 17.2386192,12.7477539 17.2386192,12.7477539 C17.2386192,12.7477539 17.1984929,12.811182 17.128626,12.9249709 C17.0988852,12.9867682 17.035058,13.0364851 16.9737226,13.105814 C16.914181,13.1784044 16.8327725,13.240202 16.742892,13.3085439 C16.5666795,13.4488111 16.3394571,13.5789713 16.0916033,13.7005921 C15.8424931,13.8255173 15.5691056,13.9320973 15.293883,14.0335042 C14.3564887,14.3660305 13.2495249,14.4935519 12.9725063,14.5452209 C12.6851851,15.3290174 12.174229,16.1272131 11.9470255,16.7598963 C14.1954903,17.6296939 18.064867,17.8088864 19.6261521,13.9066182 C21.3127085,9.6885442 16.7381139,-0.325148693 16.874198,1.14629443 Z" id="Shape"></path>
            </g>
        </g>
    </g>
</svg>