<?xml version="1.0" encoding="UTF-8" standalone="no"?>
<svg width="20px" height="20px" viewBox="0 0 20 20" version="1.1" xmlns="http://www.w3.org/2000/svg" xmlns:xlink="http://www.w3.org/1999/xlink">
    <!-- Generator: Sketch 46 (44423) - http://www.bohemiancoding.com/sketch -->
    <title>reshuixunhuanbeng</title>
    <desc>Created with Sketch.</desc>
    <defs></defs>
    <g id="Page-1" stroke="none" stroke-width="1" fill="none" fill-rule="evenodd">
        <g id="暖通空调" transform="translate(-881.000000, -419.000000)" fill="#FFFFFF">
            <g id="内容区域" transform="translate(240.000000, 100.000000)">
                <g id="right" transform="translate(0.000000, 41.000000)">
                    <g id="Group-8" transform="translate(80.000000, 63.000000)">
                        <g id="Group-7" transform="translate(556.000000, 210.000000)">
                            <path d="M23.0003164,16 C22.4477813,16 22,15.5523491 22,15.0003265 C22,14.4476509 22.4478017,14 23.0003164,14 C23.5528516,14 24,14.4476509 24,15.0003265 C24,15.5523491 23.5528516,16 23.0003164,16 M20.706921,21.7069199 C20.3167408,22.0976934 19.6833051,22.0976934 19.293125,21.7069199 C18.9022917,21.3164729 18.9022917,20.6837872 19.293125,20.2930342 C19.6833051,19.9023219 20.3167204,19.9023219 20.706921,20.2930342 C21.097693,20.6838076 21.097693,21.3164729 20.706921,21.7069199 M15.0000128,21 C11.6861635,21 9,18.3141637 9,14.9999615 C9,11.6861441 11.6861379,9 15.0000128,9 C18.3131181,9 21,11.6861441 21,14.9999615 C21,18.3141637 18.3131181,21 15.0000128,21 M15.0000102,24 C14.4476555,24 14,23.5529976 14,22.9999898 C14,22.4476555 14.4476555,22 15.0000102,22 C15.5523445,22 16,22.4476555 16,22.9999898 C16,23.5529976 15.5523445,24 15.0000102,24 M9.70687205,21.7069199 C9.31611642,22.0976934 8.68357233,22.0976934 8.29308203,21.7069199 C7.90230599,21.3164729 7.90230599,20.6837872 8.29308203,20.2930342 C8.68357233,19.9023219 9.31611642,19.9023219 9.70687205,20.2930342 C10.0977093,20.6838076 10.0977093,21.3164729 9.70687205,21.7069199 M7,16 C6.44749092,16 6,15.5523491 6,15.0003265 C6,14.4476509 6.44749092,14 7,14 C7.5525295,14 8,14.4476509 8,15.0003265 C7.99997958,15.5523491 7.5525295,16 7,16 M8.29306896,8.29256871 C8.68356226,7.9024771 9.31611119,7.9024771 9.70686981,8.29256871 C10.0977101,8.68355812 10.0977101,9.31658471 9.70686981,9.7070028 C9.31611119,10.0976657 8.68356226,10.0976657 8.29306896,9.7070028 C7.90231035,9.31660511 7.90231035,8.68355812 8.29306896,8.29256871 M15.0000102,6 C15.5523445,6 16,6.44759427 16,7.0000102 C16,7.55234451 15.5523445,8 15.0000102,8 C14.4476555,8 14,7.55234451 14,7.0000102 C14,6.44759427 14.4476555,6 15.0000102,6 M19.293125,8.29256871 C19.6833051,7.9024771 20.3167204,7.9024771 20.706921,8.29256871 C21.097693,8.68355812 21.097693,9.31658471 20.706921,9.7070028 C20.3167408,10.0976657 19.6833051,10.0976657 19.293125,9.7070028 C18.9022917,9.31660511 18.9022917,8.68355812 19.293125,8.29256871 M15.0005465,5 C9.47731829,5 5,9.47776205 5,15.0001738 C5,20.5229829 9.47731829,25 15.0005465,25 C20.5229798,25 25,20.5229829 25,15.0001738 C25,9.47773722 20.5229798,5 15.0005465,5 M17.3198787,12.7063692 C17.3331855,12.692845 17.3331855,12.6729654 17.3243535,12.657077 C17.3132606,12.6435528 17.2955966,12.6355959 17.2793692,12.6435528 C17.2638956,12.6503149 15.7480659,13.3025532 15.9382246,14.7450173 C15.5226262,14.3608229 13.5815653,12.3822711 14.7680204,10.0561064 C14.7768524,10.0418449 14.7746621,10.0227026 14.7621324,10.012356 C14.7533004,10.0012977 14.7341291,9.99649306 14.722306,10.002823 C14.69581,10.012356 14.0893462,10.2808066 13.6073783,10.9565343 C13.1608325,11.5769194 12.7474479,12.6769566 13.3044761,14.379889 C13.5093549,15.1793174 13.1254339,15.8282763 12.9206257,16.1035144 C12.9707444,15.914633 13.0333691,15.5924923 13.0244429,15.2230678 C13.0075561,14.6829636 12.8189047,13.9352677 12.0112598,13.4532515 C11.9987301,13.444532 11.98328,13.4469216 11.9707739,13.4548785 C11.9582207,13.4648183 11.9530157,13.479156 11.9559833,13.4938242 C11.9596809,13.5089754 12.2610522,14.93156 11.7312502,15.5873826 C11.2743415,16.1572808 10.8256054,17.1447517 11.0680496,18.0586276 C11.2713975,18.8246269 11.9058646,19.4072357 12.9559537,19.7957518 C13.2249646,19.8808629 13.4835654,19.9441623 13.7672727,19.9990472 C13.7850309,20.0033688 13.804108,19.9926156 13.809313,19.974363 C13.815201,19.9549156 13.806369,19.9325701 13.7886344,19.9262402 C13.2507776,19.6844059 12.6936552,19.183349 13.1077934,18.1635928 C13.5013001,17.2835275 13.4305263,16.8297037 13.3524279,16.6372378 C13.5551164,16.7549137 13.9596454,17.0632251 13.8579479,17.6004567 C13.8557576,17.6160401 13.8616456,17.6331233 13.8764362,17.6402922 C13.8896489,17.6509692 13.9058526,17.6490117 13.9176286,17.637445 C13.9316656,17.6287254 15.1461005,16.5966906 14.5933588,15.332863 C14.8660673,15.4966535 15.5867818,16.0614165 15.1608205,17.3602748 C15.0208275,17.9186825 15.4062087,18.3195026 15.4216824,18.3378314 C15.434212,18.348966 15.4533833,18.3529826 15.4688334,18.3418226 C15.4821168,18.3346538 15.4887584,18.3131472 15.4821168,18.2964453 C15.4703408,18.2615162 15.1829358,17.4620878 15.80704,17.0190935 C15.7739259,17.2262784 15.7216405,17.7341227 15.9455964,18.0089287 C16.1445872,18.2606773 16.3398803,18.667929 16.280176,19.0671984 C16.2381357,19.3472157 16.0782412,19.5842199 15.8004926,19.7699491 C15.7842888,19.7810837 15.7783773,19.8022089 15.7864556,19.8188854 C15.7945339,19.8383582 15.8137053,19.8451203 15.8314399,19.8387649 C16.5175094,19.6060824 17.4157824,19.1411494 17.8077817,18.2550846 C18.0966469,17.6024905 18.0598351,16.8178318 17.6980059,15.9285894 C16.6102572,13.4938242 17.312554,12.715165 17.3198787,12.7063692" id="reshuixunhuanbeng"></path>
                        </g>
                    </g>
                </g>
            </g>
        </g>
    </g>
</svg>