<?xml version="1.0" encoding="UTF-8" standalone="no"?>
<svg width="39px" height="39px" viewBox="0 0 39 39" version="1.1" xmlns="http://www.w3.org/2000/svg" xmlns:xlink="http://www.w3.org/1999/xlink">
    <!-- Generator: Sketch 48.2 (47327) - http://www.bohemiancoding.com/sketch -->
    <title>消防报警系统</title>
    <desc>Created with Sketch.</desc>
    <defs>
        <path d="M13.0318471,16.3040541 L13.0318471,21 L23,21 L23,16.0337838 C22.8726115,13.2297297 20.7070064,11 18,11 C15.3248408,11 13.1592357,13.2297297 13,16.0337838 L13,16.3040541 L13.0318471,16.3040541 Z M22.5940397,10.9546218 L24.8509934,9.58319328 C25.0099338,9.47563025 25.0417219,9.2605042 24.9463576,9.12605042 C24.8192053,8.99159664 24.5649007,8.96470588 24.4059603,9.04537815 L22.1490066,10.4168067 C21.9900662,10.5243697 21.9582781,10.7394958 22.0536424,10.8739496 C22.1807947,11.0084034 22.4033113,11.0352941 22.5940397,10.9546218 Z M11,22.2058704 L11,23 L25,23 L25,22.2332541 C25,21.5486596 24.3364929,21.000984 23.507109,21.000984 L12.5260664,21.000984 C11.6635071,20.9736002 11,21.5212758 11,22.2058704 Z M17.5,10 C17.75,10 18,9.82142857 18,9.57142857 L18,6.42857143 C18,6.21428571 17.7916667,6 17.5,6 C17.25,6 17,6.17857143 17,6.42857143 L17,9.53571429 C17,9.78571429 17.2083333,10 17.5,10 Z M12.3491245,11.9046207 C12.5156195,12.0544469 12.7820115,12.0169904 12.9152075,11.8671642 C13.0484035,11.6798814 13.0151045,11.380229 12.8819085,11.2304028 L10.6508755,9.09537928 C10.4843805,8.94555307 10.2179885,8.98300963 10.0847925,9.13283584 C9.9515965,9.3201186 9.9848955,9.61977102 10.1180915,9.76959723 L12.3491245,11.9046207 Z M12,16.5 C12,16.25 11.8198198,16 11.5675676,16 L8.43243243,16 C8.21621622,16 8,16.2083333 8,16.5 C8,16.75 8.18018018,17 8.43243243,17 L11.5675676,17 C11.8198198,17 12,16.7916667 12,16.5 Z M10,23 L25,23 L25,25 L10,25 L10,23 Z M26.5675676,16 L23.4324324,16 C23.2162162,16 23,16.2083333 23,16.5 C23,16.75 23.1801802,17 23.4324324,17 L26.5675676,17 C26.7837838,17 27,16.7916667 27,16.5 C26.963964,16.25 26.7837838,16 26.5675676,16 Z" id="path-1"></path>
        <filter x="-84.2%" y="-73.7%" width="268.4%" height="268.4%" filterUnits="objectBoundingBox" id="filter-2">
            <feOffset dx="0" dy="2" in="SourceAlpha" result="shadowOffsetOuter1"></feOffset>
            <feGaussianBlur stdDeviation="5" in="shadowOffsetOuter1" result="shadowBlurOuter1"></feGaussianBlur>
            <feColorMatrix values="0 0 0 0 0.136954788   0 0 0 0 0.273297634   0 0 0 0 0.465029762  0 0 0 1 0" type="matrix" in="shadowBlurOuter1"></feColorMatrix>
        </filter>
    </defs>
    <g id="首页" stroke="none" stroke-width="1" fill="none" fill-rule="evenodd" transform="translate(-726.000000, -560.000000)">
        <g id="消防报警系统" transform="translate(728.000000, 562.000000)">
            <g id="Shape" fill-rule="nonzero">
                <use fill="black" fill-opacity="1" filter="url(#filter-2)" xlink:href="#path-1"></use>
                <use fill="#56E4FF" fill-rule="evenodd" xlink:href="#path-1"></use>
            </g>
            <circle id="Oval-5" stroke="#56E4FF" stroke-width="3" cx="17.5" cy="17.5" r="17.5"></circle>
        </g>
    </g>
</svg>