<?xml version="1.0" encoding="UTF-8" standalone="no"?>
<svg width="81px" height="100px" viewBox="0 0 81 100" version="1.1" xmlns="http://www.w3.org/2000/svg" xmlns:xlink="http://www.w3.org/1999/xlink">
    <!-- Generator: Sketch 47.1 (45422) - http://www.bohemiancoding.com/sketch -->
    <title>一般拥堵</title>
    <desc>Created with Sketch.</desc>
    <defs></defs>
    <g id="Page-1" stroke="none" stroke-width="1" fill="none" fill-rule="evenodd">
        <g id="马路流量" transform="translate(-1321.000000, -763.000000)">
            <g id="一般拥堵" transform="translate(1321.000000, 763.000000)">
                <path d="M40.501003,26.5627534 C32.7590852,26.564991 26.4835781,32.8597896 26.4813474,40.6255067 C26.4835781,48.3912239 32.7590852,54.6860224 40.501003,54.68826 C48.2419973,54.6837872 54.5161996,48.3902975 54.5206587,40.6255067 C54.5161996,32.860716 48.2419973,26.5672262 40.501003,26.5627534 M40.501003,0 C18.1338123,1.11020052e-14 0,18.1895573 0,40.6255067 C0,47.3548727 1.62868877,53.6950705 4.51425638,59.2853089 C11.2533097,72.3346035 40.501003,100 40.501003,100 C40.501003,100 69.675951,72.3852764 76.4271285,59.3846278 C79.4366581,53.5934848 81.0055246,47.1582569 80.9999854,40.6275336 C80.9999854,18.1895573 62.866173,1.11020052e-14 40.501003,1.11020052e-14" id="Shape" fill="#F5BD16" fill-rule="nonzero"></path>
                <text id="一般-拥堵" font-family="PingFangSC-Regular, PingFang SC" font-size="20" font-weight="normal" letter-spacing="0.6666667" fill="#FFFFFF">
                    <tspan x="20" y="35">一般</tspan>
                    <tspan x="20" y="63">拥堵</tspan>
                </text>
            </g>
        </g>
    </g>
</svg>