<?xml version="1.0" encoding="UTF-8" standalone="no"?>
<svg width="78px" height="78px" viewBox="0 0 78 78" version="1.1" xmlns="http://www.w3.org/2000/svg" xmlns:xlink="http://www.w3.org/1999/xlink">
    <!-- Generator: Sketch 47.1 (45422) - http://www.bohemiancoding.com/sketch -->
    <title>renlianxaingji</title>
    <desc>Created with Sketch.</desc>
    <defs>
        <filter x="-45.0%" y="-45.0%" width="190.0%" height="190.0%" filterUnits="objectBoundingBox" id="filter-1">
            <feOffset dx="0" dy="0" in="SourceAlpha" result="shadowOffsetOuter1"></feOffset>
            <feGaussianBlur stdDeviation="7.5" in="shadowOffsetOuter1" result="shadowBlurOuter1"></feGaussianBlur>
            <feColorMatrix values="0 0 0 0 0.00458804306   0 0 0 0 0.0492387499   0 0 0 0 0.230256165  0 0 0 0.655683877 0" type="matrix" in="shadowBlurOuter1" result="shadowMatrixOuter1"></feColorMatrix>
            <feMerge>
                <feMergeNode in="shadowMatrixOuter1"></feMergeNode>
                <feMergeNode in="SourceGraphic"></feMergeNode>
            </feMerge>
        </filter>
    </defs>
    <g id="Page-1" stroke="none" stroke-width="1" fill="none" fill-rule="evenodd">
        <g id="项目首页－三层-大图" transform="translate(-1241.000000, -467.000000)">
            <g id="renlianxaingji" transform="translate(1277.500000, 506.000000) scale(-1, 1) translate(-1277.500000, -506.000000) translate(1250.000000, 481.000000)">
                <g id="Group-2" filter="url(#filter-1)" fill="#FFFFFF">
                    <circle id="Oval-3" opacity="0.4" cx="25" cy="25" r="25"></circle>
                    <circle id="Oval-3" opacity="0.6" cx="25" cy="25" r="15"></circle>
                    <circle id="Oval-3" cx="25" cy="25" r="8"></circle>
                </g>
                <g id="枪式摄像机" transform="translate(31.784538, 24.890166) scale(-1, 1) rotate(-1.000000) translate(-31.784538, -24.890166) translate(9.284538, 8.390166)" fill-rule="nonzero">
                    <polygon id="Shape" fill="#17DAB3" points="36.9101124 22.3384615 43.4831461 23.4843278 43.4831461 33 36.9101124 30.9075485"></polygon>
                    <polygon id="Shape" fill="#A1BBC6" points="28.8202247 26.3463927 39.0729703 25.3846154 41.9662921 26.1151457 31.0606944 27.9230769"></polygon>
                    <polygon id="Shape" fill="#678289" points="31.3483146 26.0369322 31.8258929 25.8923077 31.9561416 26.9317964 34.3820225 27.0402648 31.8096119 27.4153846"></polygon>
                    <polygon id="Shape" fill="#7C99A3" points="32.8651685 19.2923077 31.7558276 29.9918672 29.3258427 30.9692308 30.4351836 19.3437479"></polygon>
                    <polygon id="Shape" fill="#A1BBC6" points="27.2884598 19.426644 26.2921348 29.6052008 28.8351357 30.9692308 29.8314607 19.2923077"></polygon>
                    <polygon id="Shape" fill="#0D836B" points="41.9662921 28.4307692 40.3067485 29.0196923 37.5822017 30.2736923 36.9101124 30.9692308 36.9101124 29.0247692"></polygon>
                    <polygon id="Shape" fill="#0D836B" points="25.2808989 20.0214862 28.7736546 20.8153846 28.8202247 19.2923077"></polygon>
                    <path d="M41.2093681,8.06644654 C40.2559234,3.55582647 36.8406744,0.455726513 33.5666764,1.10010081 L33.5616318,1.06458411 L8.59550562,4.62640109 L11.435661,23.3538462 L36.815451,17.6102894 L36.9819255,17.5798466 C40.2811468,16.8695127 42.1729022,12.6125833 41.2093681,8.06644654 Z" id="Shape" fill="#17DAB3"></path>
                    <path d="M1.07494435,2.65658198 C0.812236156,2.7142702 0.0338415002,3.25444179 0.0046517006,4.49736089 C-0.024538099,5.75601313 0.0533013666,6.64755847 1.13818892,8.52504808 C2.22307647,10.4025377 3.59986202,11.6769231 3.59986202,11.6769231 L5.63828302,10.1245853 L7.58426966,6.07067619 C7.58426966,6.07067619 6.95668897,5.18437524 5.34638503,4.13025398 C3.73608108,3.07613272 3.31282899,2.78769158 2.38362037,2.60413813 C1.64901041,2.45729537 1.33278758,2.59364936 1.07494435,2.65658198 Z" id="Shape" fill="#17DAB3"></path>
                    <path d="M7.07865169,5.21343554 C7.07865169,5.21343554 4.38367685,7.47093675 4.12559454,8.16323712 C3.86751224,8.85553749 3.03370787,10.6615385 3.03370787,10.6615385 C3.03370787,10.6615385 3.18756462,8.9358042 3.84269663,7.59635348 C4.70131661,5.8254692 5.05866134,5.18835219 4.87006273,4.11980162 C4.67153788,3.01613436 5.08347694,3.04623438 5.08347694,3.04623438 L7.07865169,5.21343554 L7.07865169,5.21343554 Z" id="Shape" fill="#0D836B"></path>
                    <path d="M15.6741573,11.288338 C15.6741573,11.288338 16.8129781,16.1975341 16.2410593,16.6731124 C15.6741573,17.1486908 28.5573806,15.4304722 34.9036725,13.9474859 C38.5157911,13.1037178 41.2248802,12.6025707 41.2248802,12.6025707 C41.2248802,12.6025707 41.4406039,11.871305 41.4606712,10.3320675 C41.4707049,9.61614312 15.6741573,11.288338 15.6741573,11.288338 L15.6741573,11.288338 Z" id="Shape" fill="#0D836B"></path>
                    <path d="M3.17801317,15.4884601 C3.68547821,18.8241247 5.4761916,21.7122117 7.87556193,23.064731 C10.2749323,24.4172504 12.9184078,24.028705 14.8101476,22.0454665 C16.7018873,20.062228 17.5544671,16.7856224 17.0467059,13.4500014 C16.5392409,10.1143369 14.7485275,7.22624983 12.3491572,5.8737305 C9.94978683,4.52121117 7.30631128,4.9097565 5.41457155,6.89299502 C3.52283181,8.87623355 2.67025204,12.1528391 3.17801317,15.4884601 L3.17801317,15.4884601 Z" id="Shape" fill="#A1BBC6"></path>
                    <path d="M4.15823902,14.760521 C4.55702817,17.3749917 5.96400325,19.6385771 7.84917038,20.6986065 C9.73433751,21.7586358 11.811295,21.4540654 13.2976729,19.899624 C14.7840509,18.3451825 15.4540333,15.7770267 15.0552441,13.1625559 C14.656455,10.5480852 13.2494799,8.28449978 11.3643128,7.22447045 C9.47914563,6.16444112 7.40218819,6.46901154 5.91581021,8.02345297 C4.42943223,9.5778944 3.75944987,12.1460502 4.15823902,14.760521 L4.15823902,14.760521 Z" id="Shape" fill="#113B42"></path>
                    <path d="M8.25125908,6.64477099 C7.42927795,6.77293658 6.68998132,7.17281321 6.06741573,7.76750153 C7.02558308,10.5358782 8.47985738,13.7810309 10.4107835,15.5292095 C11.9915164,16.9595374 13.1004613,18.0310017 13.8543494,18.7846154 C14.5547356,17.2978946 14.8368357,15.385664 14.5547356,13.370901 C13.9613528,9.20295611 11.1403525,6.19362813 8.25125908,6.64477099 Z" id="Shape" fill="#2C5766"></path>
                    <path d="M6.11881583,14.6015334 C6.2998482,15.8636634 6.93921074,16.9563374 7.79605084,17.4679369 C8.65289094,17.9795364 9.59702714,17.8323331 10.2727963,17.0817795 C10.9485655,16.3312259 11.2532967,15.0913552 11.0721954,13.8292359 C10.891163,12.5671058 10.2518005,11.4744318 9.3949604,10.9628323 C8.5381203,10.4512328 7.59398409,10.5984362 6.91821491,11.3489897 C6.24244572,12.0995433 5.93771452,13.339414 6.11881583,14.6015334 L6.11881583,14.6015334 Z" id="Shape" fill="#FFFFFF"></path>
                    <path d="M7.62031305,14.2096584 C7.74702171,15.0210125 8.19460285,15.7234846 8.79442838,16.0524154 C9.3942539,16.3813462 10.0551776,16.2867531 10.5281936,15.8042746 C11.0012097,15.321796 11.2144411,14.5247467 11.0875521,13.7134185 C10.9608435,12.9020644 10.5132623,12.1995923 9.91343679,11.8706615 C9.31361127,11.5417308 8.65268759,11.6363238 8.17967155,12.1188024 C7.70665551,12.6012809 7.49342406,13.3983302 7.62031305,14.2096584 L7.62031305,14.2096584 Z" id="Shape" fill="#113B42"></path>
                    <path d="M9.98718285,14.7230769 C10.1044887,14.4213911 10.1452908,14.0622414 10.0840877,13.683937 C9.93618029,12.759725 9.23234497,12.0941009 8.51830914,12.1946628 C8.36020121,12.2186061 8.21739404,12.2712814 8.08988764,12.3574773 C8.66111631,13.2481687 9.29354805,14.0670301 9.98718285,14.7230769 L9.98718285,14.7230769 Z" id="Shape" fill="#2C5766"></path>
                    <path d="M42.1582095,3.7068008 C40.3976178,0.72945076 36.3377831,0 36.3377831,0 L1.37033682,2.21812578 L1.01123596,2.55059653 C1.12594873,2.47616278 1.22569897,2.43150253 1.29552414,2.42157803 C1.56484978,2.36699328 1.88903806,2.23301253 2.63716485,2.37195553 C3.58479212,2.54563428 4.02369317,2.81855804 5.67455962,3.8159703 C7.32542608,4.81338256 7.96881512,5.65200283 7.96881512,5.65200283 L7.96382761,5.66192733 C9.95384487,7.61705385 11.7643117,10.1775749 14.796719,12.3411159 C18.0884769,14.6882602 21.6445729,15.219221 29.4250915,14.2912802 C39.9587167,13.0358309 41.958709,10.3859894 42.8265361,9.32903012 C43.6893757,8.27207086 43.9188012,6.68415084 42.1582095,3.7068008 Z" id="Shape" fill="#17DAB3"></path>
                    <polygon id="Shape" fill="#17DAB3" points="34.8876404 17.7692308 28.8202247 19.0747253 28.8202247 20.8153846 34.8876404 19.4615385"></polygon>
                    <polygon id="Shape" fill="#7C99A3" points="29.3258427 30.9692308 32.6116626 29.8421146 41.9662921 28.3229581 41.9662921 25.8923077 29.5946825 27.7643006"></polygon>
                    <polygon id="Shape" fill="#0D836B" points="28.8202247 19.985503 33.3707865 18.7846154 28.8713546 20.3076923"></polygon>
                    <polygon id="Shape" fill="#0D836B" points="43.988764 33 45 32.3107318 45 22.8461538 43.988764 23.1753566"></polygon>
                    <polygon id="Shape" fill="#17DAB3" points="36.9101124 22.1332619 43.7554019 23.3538462 45 23.0142053 38.4140017 21.8307692"></polygon>
                    <path d="M42.4719101,4.63737739 C42.3129587,4.29494063 42.1291711,3.93717088 41.9106129,3.55384615 C40.6837067,4.22338668 37.8474174,5.84868353 33.2626626,6.52333505 C27.118197,7.42798141 20.7303371,8.12307692 20.7303371,8.12307692 C20.7303371,8.12307692 31.9066083,7.61197728 36.6254784,6.64088797 C40.1025406,5.92534848 41.8162355,5.0462571 42.4719101,4.63737739 L42.4719101,4.63737739 Z" id="Shape" fill="#D4F7FF"></path>
                </g>
            </g>
        </g>
    </g>
</svg>